<svg width="48" height="48" viewBox="0 0 48 48" fill="none" xmlns="http://www.w3.org/2000/svg">
<g id="cms 4" clip-path="url(#clip0_1258_2673)">
<g id="Group">
<path id="Vector" d="M25.6729 42.9437C25.6729 44.0251 25.6772 45.1065 25.6714 46.1875C25.6662 47.2565 24.974 47.9928 23.99 47.9894C23.0132 47.9861 22.3268 47.243 22.3249 46.1717C22.321 43.9565 22.3148 41.7413 22.3321 39.5265C22.335 39.1603 22.239 39.0499 21.8694 39.0629C21.0682 39.0912 20.2642 39.0917 19.4631 39.0629C19.0839 39.0494 18.9524 39.1373 18.9639 39.5443C18.9946 40.6421 18.9788 41.7417 18.973 42.8405C18.9673 43.908 18.2737 44.6448 17.2897 44.64C16.3129 44.6357 15.6303 43.8926 15.626 42.8203C15.6217 41.7389 15.6049 40.6569 15.6351 39.5765C15.6471 39.1608 15.5233 39.0633 15.1167 39.0614C12.1662 39.0465 9.76952 37.1433 9.08648 34.2979C8.96408 33.7881 8.89304 33.2678 8.93144 32.7427C8.954 32.435 8.83256 32.3635 8.54456 32.3673C7.42856 32.3817 6.31208 32.376 5.19608 32.3721C4.09064 32.3683 3.34712 31.6781 3.35768 30.6744C3.36824 29.6947 4.1036 29.0289 5.18888 29.0251C6.2876 29.0213 7.3868 29.0141 8.48504 29.0304C8.80664 29.0352 8.94728 28.9737 8.93528 28.6085C8.90744 27.7723 8.90936 26.9337 8.9348 26.0976C8.94536 25.7453 8.82584 25.6661 8.49272 25.668C6.2252 25.6814 3.95816 25.6805 1.69064 25.6713C0.938481 25.6685 0.324561 25.2168 0.0908011 24.5424C-0.138639 23.8805 0.0711211 23.1485 0.619281 22.7021C0.974481 22.4126 1.38632 22.3209 1.83848 22.3224C4.00136 22.3291 6.16424 22.3056 8.32664 22.3397C8.8532 22.3483 8.96408 22.1889 8.93768 21.7017C8.89544 20.9193 8.9132 20.1321 8.93288 19.3478C8.94056 19.0445 8.83784 18.9662 8.54648 18.9701C7.43048 18.9849 6.314 18.9792 5.198 18.9753C4.09112 18.9715 3.34808 18.2832 3.35768 17.2795C3.36728 16.2993 4.10264 15.6321 5.18696 15.6278C6.28568 15.6235 7.38488 15.6173 8.48312 15.6331C8.80088 15.6379 8.92904 15.5808 8.93624 15.2145C9.01064 11.5233 11.523 9.01054 15.2113 8.93806C15.5756 8.93086 15.6356 8.80558 15.6313 8.4859C15.615 7.3699 15.6202 6.25342 15.6265 5.13742C15.6332 4.09534 16.3124 3.36958 17.2767 3.35998C18.265 3.3499 18.9668 4.08286 18.973 5.14702C18.9798 6.26302 18.9865 7.3795 18.9673 8.4955C18.9615 8.82958 19.046 8.94766 19.3978 8.9371C20.2345 8.91166 21.0726 8.90974 21.9087 8.93758C22.2745 8.95006 22.3316 8.80798 22.3297 8.48734C22.3182 6.21982 22.3162 3.9523 22.3278 1.68526C22.3321 0.811664 22.9551 0.115664 23.7649 0.0235038C24.651 -0.0772962 25.407 0.426224 25.6167 1.27966C25.67 1.49566 25.67 1.72846 25.6705 1.95358C25.6743 4.11646 25.682 6.27934 25.6638 8.44174C25.6604 8.8219 25.7415 8.95678 26.1471 8.93902C26.9478 8.90446 27.7527 8.90302 28.5534 8.9395C28.9686 8.9587 29.0386 8.80798 29.0305 8.43598C29.007 7.35502 29.019 6.27358 29.0228 5.19214C29.0271 4.10638 29.6924 3.37054 30.6716 3.35998C31.6758 3.34894 32.3665 4.09246 32.3708 5.19694C32.3746 6.24334 32.3948 7.2907 32.3612 8.33614C32.3463 8.79934 32.4572 8.94286 32.9492 8.94238C35.5815 8.94094 37.8663 10.5864 38.7294 13.0646C38.9718 13.7611 39.1009 14.4825 39.0644 15.2213C39.0486 15.5385 39.1383 15.6413 39.4681 15.635C40.5663 15.6144 41.6655 15.6249 42.7642 15.6278C43.8855 15.6307 44.6329 16.295 44.6386 17.2891C44.6444 18.2875 43.897 18.972 42.7887 18.9753C41.69 18.9787 40.5908 18.9907 39.4926 18.9681C39.1402 18.9609 39.0538 19.0766 39.063 19.4107C39.085 20.2301 39.0889 21.0509 39.0615 21.8693C39.049 22.235 39.1527 22.3373 39.5228 22.3344C41.7726 22.3171 44.0228 22.3214 46.2726 22.3286C47.0698 22.331 47.7207 22.8134 47.9324 23.5238C48.1402 24.2203 47.8546 24.9917 47.2326 25.4021C46.8999 25.6214 46.5294 25.679 46.1358 25.6776C43.9556 25.6718 41.7754 25.6886 39.5953 25.6632C39.1479 25.6579 39.0409 25.7885 39.0596 26.2152C39.0946 27.0158 39.085 27.8198 39.0625 28.6214C39.0534 28.9449 39.1489 29.0366 39.4719 29.0313C40.5879 29.0121 41.7044 29.0203 42.8204 29.0251C43.8927 29.0294 44.6343 29.7129 44.6382 30.6902C44.642 31.6709 43.9023 32.3664 42.8367 32.3721C41.738 32.3779 40.6388 32.3861 39.5406 32.3659C39.1974 32.3597 39.0654 32.4216 39.0596 32.8109C39.0073 36.4406 36.4383 39.0101 32.8114 39.0614C32.4255 39.0667 32.3578 39.1934 32.3641 39.54C32.3847 40.6382 32.3756 41.7374 32.3703 42.8361C32.365 43.9061 31.6743 44.6429 30.6908 44.64C29.714 44.6371 29.0276 43.8945 29.0233 42.8241C29.019 41.7077 29.0108 40.5917 29.0295 39.4757C29.0348 39.1565 28.9498 39.0547 28.6225 39.0638C27.7858 39.0869 26.9473 39.0931 26.1116 39.0619C25.7194 39.0475 25.6604 39.1992 25.6662 39.5424C25.6854 40.6761 25.6734 41.8099 25.6729 42.9437ZM26.222 24.9984C26.2186 24.9984 26.2148 24.9984 26.2114 24.9984C26.2114 23.8483 26.2426 22.6968 26.2042 21.5481C26.1428 19.7049 24.7263 18.1723 22.9057 17.9136C22.0724 17.795 21.2348 17.856 20.3996 17.8545C17.8234 17.8512 16.1809 19.4928 16.1756 22.0622C16.1713 24.1013 16.1732 26.1403 16.177 28.1793C16.1775 28.3872 16.189 28.5989 16.2308 28.8014C16.3945 29.603 17.1404 30.1853 17.9271 30.1411C18.7897 30.0926 19.4684 29.4283 19.513 28.5629C19.5366 28.1107 19.5399 27.6561 19.5178 27.204C19.502 26.8737 19.634 26.7873 19.9431 26.7936C20.762 26.8099 21.5823 26.8229 22.3998 26.7888C22.8159 26.7715 22.9076 26.9309 22.8783 27.3009C22.851 27.6475 22.8658 27.9979 22.874 28.3459C22.899 29.3889 23.6391 30.1651 24.5828 30.143C25.5318 30.1209 26.21 29.3846 26.2191 28.343C26.2297 27.2294 26.222 26.1139 26.222 24.9984ZM28.4732 23.9731C28.4732 25.4184 28.4679 26.8637 28.4751 28.3089C28.4804 29.3793 29.1673 30.1349 30.1263 30.1449C31.0743 30.155 31.814 29.3861 31.8178 28.3349C31.8289 25.4443 31.8284 22.5537 31.8178 19.6627C31.814 18.6125 31.0729 17.843 30.1244 17.8536C29.1591 17.8641 28.4799 18.6115 28.4746 19.6886C28.4679 21.1176 28.4732 22.5451 28.4732 23.9731Z" fill="black"/>
<path id="Vector_2" d="M21.1677 23.4511C21.0808 23.4511 20.993 23.4573 20.907 23.4501C20.4635 23.4117 19.8256 23.6594 19.6187 23.3416C19.3365 22.9077 19.5117 22.264 19.5477 21.7135C19.5702 21.3679 19.8328 21.2085 20.1683 21.2056C20.8638 21.1994 21.5598 21.1941 22.2554 21.208C22.6427 21.2157 22.8467 21.4221 22.875 21.8291C22.9883 23.452 22.9941 23.4515 21.377 23.4515C21.3069 23.4511 21.2373 23.4511 21.1677 23.4511Z" fill="black"/>
</g>
</g>
<defs>
<clipPath id="clip0_1258_2673">
<rect width="48" height="48" fill="white"/>
</clipPath>
</defs>
</svg>
