<svg width="150" height="31" viewBox="0 0 150 31" fill="none" xmlns="http://www.w3.org/2000/svg">
<path fill-rule="evenodd" clip-rule="evenodd" d="M9.85551 3.35619L7.42578 0.434759L16.5926 0L24.4261 7.2841L21.6879 8.03299L16.4138 2.5407L9.85551 3.35619Z" fill="#EC4746"/>
<path fill-rule="evenodd" clip-rule="evenodd" d="M9.85551 3.35619L7.42578 0.434759L16.5926 0L24.4261 7.2841L21.6879 8.03299L16.4138 2.5407L9.85551 3.35619Z" fill="#EC4746"/>
<path fill-rule="evenodd" clip-rule="evenodd" d="M7.02741 12.1682L0 3.97059L9.69428 3.375L12.0994 6.07026L8.0317 6.71108L11.5979 10.835L7.02741 12.1682Z" fill="#252322"/>
<path fill-rule="evenodd" clip-rule="evenodd" d="M7.02741 12.1682L0 3.97059L9.69428 3.375L12.0994 6.07026L8.0317 6.71108L11.5979 10.835L7.02741 12.1682Z" fill="white"/>
<path fill-rule="evenodd" clip-rule="evenodd" d="M16.1433 9.70916L12.6289 6.32658L16.5009 5.60156L19.471 8.81199L16.1433 9.70916Z" fill="#7B7979"/>
<path fill-rule="evenodd" clip-rule="evenodd" d="M16.1433 9.70916L12.6289 6.32658L16.5009 5.60156L19.471 8.81199L16.1433 9.70916Z" fill="#7B7979"/>
<path fill-rule="evenodd" clip-rule="evenodd" d="M22.6144 12.1544L19.6016 8.812L21.9198 7.96887L28.0998 14.097L23.195 17.188L19.8659 13.4737L22.6144 12.1544Z" fill="#252322"/>
<path fill-rule="evenodd" clip-rule="evenodd" d="M22.6144 12.1544L19.6016 8.812L21.9198 7.96887L28.0998 14.097L23.195 17.188L19.8659 13.4737L22.6144 12.1544Z" fill="white"/>
<path fill-rule="evenodd" clip-rule="evenodd" d="M15.2928 15.0143L11.7461 11.1278L15.9524 9.95044L19.196 13.2878L15.2928 15.0143Z" fill="#7B7979"/>
<path fill-rule="evenodd" clip-rule="evenodd" d="M15.2928 15.0143L11.7461 11.1278L15.9524 9.95044L19.196 13.2878L15.2928 15.0143Z" fill="#7B7979"/>
<path fill-rule="evenodd" clip-rule="evenodd" d="M14.3201 30.7146L1.26953 14.2177L6.71082 12.4233L14.6363 21.9529L23.1967 17.1881L26.6048 21.2366L14.3201 30.7146Z" fill="#EC4746"/>
<path fill-rule="evenodd" clip-rule="evenodd" d="M14.3201 30.7146L1.26953 14.2177L6.71082 12.4233L14.6363 21.9529L23.1967 17.1881L26.6048 21.2366L14.3201 30.7146Z" fill="#EC4746"/>
<path d="M35.2539 7.47266H40.9544L43.1521 15.6024L45.3344 7.47266H51.0309V20.8333H47.4803V10.6441L44.746 20.8333H41.5336L38.8033 10.6441V20.8333H35.2539V7.47266Z" fill="#252322"/>
<path d="M35.2539 7.47266H40.9544L43.1521 15.6024L45.3344 7.47266H51.0309V20.8333H47.4803V10.6441L44.746 20.8333H41.5336L38.8033 10.6441V20.8333H35.2539V7.47266Z" fill="white"/>
<path d="M57.215 14.2904L53.4933 13.9173C53.6333 13.2978 53.8354 12.8103 54.1011 12.4547C54.3654 12.0991 54.7464 11.7912 55.244 11.5298C55.6017 11.3414 56.0928 11.1956 56.7174 11.0926C57.342 10.9895 58.0184 10.9368 58.7454 10.9368C59.9117 10.9368 60.8499 10.9996 61.5587 11.124C62.2675 11.2484 62.8559 11.5085 63.3289 11.903C63.6606 12.177 63.9224 12.564 64.1141 13.0653C64.3059 13.5667 64.4018 14.0454 64.4018 14.5003V18.775C64.4018 19.2311 64.4316 19.588 64.4925 19.8456C64.5534 20.1044 64.6856 20.4336 64.8904 20.8344H61.2348C61.0883 20.5857 60.9924 20.3959 60.9471 20.2652C60.903 20.1346 60.8577 19.9297 60.8136 19.6508C60.303 20.1182 59.7964 20.4525 59.2923 20.6535C58.6029 20.9211 57.802 21.0543 56.8898 21.0543C55.6781 21.0543 54.7581 20.7867 54.1296 20.2527C53.5011 19.7174 53.1875 19.059 53.1875 18.2749C53.1875 17.5398 53.4143 16.9354 53.8665 16.4617C54.3188 15.988 55.1546 15.6349 56.374 15.405C57.8344 15.126 58.7817 14.93 59.2158 14.8169C59.6499 14.7051 60.1087 14.5568 60.5933 14.3746C60.5933 13.9185 60.4948 13.6006 60.2966 13.4172C60.0983 13.235 59.751 13.1432 59.2534 13.1432C58.6158 13.1432 58.1377 13.2412 57.8189 13.4347C57.5701 13.5868 57.3692 13.872 57.2163 14.2917L57.215 14.2904ZM60.592 16.2406C60.0555 16.4228 59.4983 16.5836 58.9178 16.7231C58.1273 16.9241 57.6258 17.1214 57.4159 17.3162C57.1995 17.5172 57.0906 17.7446 57.0906 17.9997C57.0906 18.2912 57.1982 18.53 57.412 18.7147C57.6245 18.9007 57.9394 18.9924 58.3541 18.9924C58.7687 18.9924 59.1912 18.8919 59.5644 18.6921C59.9376 18.4923 60.2033 18.2473 60.3588 17.9583C60.5156 17.6693 60.5933 17.2948 60.5933 16.8324V16.2393L60.592 16.2406Z" fill="#252322"/>
<path d="M57.215 14.2904L53.4933 13.9173C53.6333 13.2978 53.8354 12.8103 54.1011 12.4547C54.3654 12.0991 54.7464 11.7912 55.244 11.5298C55.6017 11.3414 56.0928 11.1956 56.7174 11.0926C57.342 10.9895 58.0184 10.9368 58.7454 10.9368C59.9117 10.9368 60.8499 10.9996 61.5587 11.124C62.2675 11.2484 62.8559 11.5085 63.3289 11.903C63.6606 12.177 63.9224 12.564 64.1141 13.0653C64.3059 13.5667 64.4018 14.0454 64.4018 14.5003V18.775C64.4018 19.2311 64.4316 19.588 64.4925 19.8456C64.5534 20.1044 64.6856 20.4336 64.8904 20.8344H61.2348C61.0883 20.5857 60.9924 20.3959 60.9471 20.2652C60.903 20.1346 60.8577 19.9297 60.8136 19.6508C60.303 20.1182 59.7964 20.4525 59.2923 20.6535C58.6029 20.9211 57.802 21.0543 56.8898 21.0543C55.6781 21.0543 54.7581 20.7867 54.1296 20.2527C53.5011 19.7174 53.1875 19.059 53.1875 18.2749C53.1875 17.5398 53.4143 16.9354 53.8665 16.4617C54.3188 15.988 55.1546 15.6349 56.374 15.405C57.8344 15.126 58.7817 14.93 59.2158 14.8169C59.6499 14.7051 60.1087 14.5568 60.5933 14.3746C60.5933 13.9185 60.4948 13.6006 60.2966 13.4172C60.0983 13.235 59.751 13.1432 59.2534 13.1432C58.6158 13.1432 58.1377 13.2412 57.8189 13.4347C57.5701 13.5868 57.3692 13.872 57.2163 14.2917L57.215 14.2904ZM60.592 16.2406C60.0555 16.4228 59.4983 16.5836 58.9178 16.7231C58.1273 16.9241 57.6258 17.1214 57.4159 17.3162C57.1995 17.5172 57.0906 17.7446 57.0906 17.9997C57.0906 18.2912 57.1982 18.53 57.412 18.7147C57.6245 18.9007 57.9394 18.9924 58.3541 18.9924C58.7687 18.9924 59.1912 18.8919 59.5644 18.6921C59.9376 18.4923 60.2033 18.2473 60.3588 17.9583C60.5156 17.6693 60.5933 17.2948 60.5933 16.8324V16.2393L60.592 16.2406Z" fill="white"/>
<path d="M65.9965 11.1554H70.6175L72.2295 13.8532L74.1098 11.1554H78.4056L74.9392 15.7669L78.6544 20.8344H74.1098L72.2295 17.717L70.024 20.8344H65.8047L69.4953 15.7669L65.9965 11.1554Z" fill="#252322"/>
<path d="M65.9965 11.1554H70.6175L72.2295 13.8532L74.1098 11.1554H78.4056L74.9392 15.7669L78.6544 20.8344H74.1098L72.2295 17.717L70.024 20.8344H65.8047L69.4953 15.7669L65.9965 11.1554Z" fill="white"/>
<path d="M80.3086 7.47266H87.5122C89.0815 7.47266 90.2569 7.82825 91.0383 8.53945C91.8197 9.25064 92.211 10.2622 92.211 11.574C92.211 12.8858 91.7847 13.9765 90.9333 14.7367C90.0819 15.4969 88.7822 15.8763 87.0341 15.8763H84.6614V20.8346H80.3086V7.47266ZM84.6614 13.1685H85.724C86.5598 13.1685 87.1455 13.0303 87.485 12.7538C87.8232 12.4774 87.993 12.1231 87.993 11.6921C87.993 11.2611 87.8466 10.9181 87.5524 10.6253C87.2583 10.3338 86.7062 10.188 85.8976 10.188H84.6627V13.1685H84.6614Z" fill="#EC4746"/>
<path d="M80.3086 7.47266H87.5122C89.0815 7.47266 90.2569 7.82825 91.0383 8.53945C91.8197 9.25064 92.211 10.2622 92.211 11.574C92.211 12.8858 91.7847 13.9765 90.9333 14.7367C90.0819 15.4969 88.7822 15.8763 87.0341 15.8763H84.6614V20.8346H80.3086V7.47266ZM84.6614 13.1685H85.724C86.5598 13.1685 87.1455 13.0303 87.485 12.7538C87.8232 12.4774 87.993 12.1231 87.993 11.6921C87.993 11.2611 87.8466 10.9181 87.5524 10.6253C87.2583 10.3338 86.7062 10.188 85.8976 10.188H84.6627V13.1685H84.6614Z" fill="#EC4746"/>
<path d="M94.3867 11.1554H98.032V12.7411C98.3818 12.0551 98.7447 11.5826 99.1179 11.3238C99.4911 11.0662 99.9511 10.9368 100.501 10.9368C101.05 10.9368 101.703 11.1064 102.386 11.4469L101.181 14.0894C100.722 13.9072 100.358 13.8155 100.09 13.8155C99.5792 13.8155 99.184 14.0165 98.9028 14.4174C98.501 14.9828 98.3002 16.0395 98.3002 17.5888V20.8332H94.3867V11.1541V11.1554Z" fill="#EC4746"/>
<path d="M94.3867 11.1554H98.032V12.7411C98.3818 12.0551 98.7447 11.5826 99.1179 11.3238C99.4911 11.0662 99.9511 10.9368 100.501 10.9368C101.05 10.9368 101.703 11.1064 102.386 11.4469L101.181 14.0894C100.722 13.9072 100.358 13.8155 100.09 13.8155C99.5792 13.8155 99.184 14.0165 98.9028 14.4174C98.501 14.9828 98.3002 16.0395 98.3002 17.5888V20.8332H94.3867V11.1541V11.1554Z" fill="#EC4746"/>
<path d="M103.017 16.0219C103.017 14.5455 103.54 13.3292 104.586 12.3717C105.632 11.4155 107.044 10.9368 108.825 10.9368C110.859 10.9368 112.398 11.4984 113.437 12.623C114.273 13.5277 114.69 14.6435 114.69 15.9679C114.69 17.4569 114.172 18.677 113.135 19.6269C112.098 20.5781 110.665 21.0531 108.834 21.0531C107.201 21.0531 105.879 20.6585 104.873 19.8682C103.635 18.8893 103.016 17.6077 103.016 16.0219H103.017ZM106.921 16.0131C106.921 16.8751 107.104 17.5134 107.471 17.9268C107.837 18.3402 108.299 18.5463 108.853 18.5463C109.408 18.5463 109.876 18.3428 110.236 17.9356C110.596 17.5285 110.776 16.8751 110.776 15.9754C110.776 15.1373 110.594 14.5128 110.231 14.1032C109.867 13.6936 109.417 13.4875 108.882 13.4875C108.314 13.4875 107.845 13.6961 107.475 14.112C107.105 14.5279 106.92 15.1625 106.92 16.0119L106.921 16.0131Z" fill="#EC4746"/>
<path d="M103.017 16.0219C103.017 14.5455 103.54 13.3292 104.586 12.3717C105.632 11.4155 107.044 10.9368 108.825 10.9368C110.859 10.9368 112.398 11.4984 113.437 12.623C114.273 13.5277 114.69 14.6435 114.69 15.9679C114.69 17.4569 114.172 18.677 113.135 19.6269C112.098 20.5781 110.665 21.0531 108.834 21.0531C107.201 21.0531 105.879 20.6585 104.873 19.8682C103.635 18.8893 103.016 17.6077 103.016 16.0219H103.017ZM106.921 16.0131C106.921 16.8751 107.104 17.5134 107.471 17.9268C107.837 18.3402 108.299 18.5463 108.853 18.5463C109.408 18.5463 109.876 18.3428 110.236 17.9356C110.596 17.5285 110.776 16.8751 110.776 15.9754C110.776 15.1373 110.594 14.5128 110.231 14.1032C109.867 13.6936 109.417 13.4875 108.882 13.4875C108.314 13.4875 107.845 13.6961 107.475 14.112C107.105 14.5279 106.92 15.1625 106.92 16.0119L106.921 16.0131Z" fill="#EC4746"/>
<path d="M121.392 7.47266V11.1543H123.536V13.8696H121.392V17.2987C121.392 17.7109 121.434 17.9835 121.517 18.118C121.644 18.324 121.868 18.4271 122.187 18.4271C122.473 18.4271 122.875 18.3479 123.392 18.1909L123.679 20.7517C122.717 20.9514 121.817 21.052 120.982 21.052C120.012 21.052 119.298 20.9339 118.838 20.6964C118.379 20.4601 118.04 20.1008 117.82 19.6183C117.599 19.1358 117.489 18.3542 117.489 17.2748V13.8709H116.055V11.1555H117.489V9.37881L121.392 7.47391V7.47266Z" fill="#EC4746"/>
<path d="M121.394 7.47266V11.1543H123.537V13.8696H121.394V17.2987C121.394 17.7109 121.435 17.9835 121.518 18.118C121.645 18.324 121.869 18.4271 122.188 18.4271C122.474 18.4271 122.876 18.3479 123.393 18.1909L123.681 20.7517C122.718 20.9514 121.819 21.052 120.982 21.052C120.012 21.052 119.298 20.9339 118.838 20.6964C118.379 20.4601 118.04 20.1008 117.82 19.6183C117.599 19.1358 117.489 18.3542 117.489 17.2748V13.8709H116.055V11.1555H117.489V9.37881L121.392 7.47391L121.394 7.47266Z" fill="#EC4746"/>
<path d="M136.8 16.9141H128.993C129.063 17.5097 129.232 17.9533 129.499 18.2448C129.875 18.6645 130.368 18.8743 130.973 18.8743C131.356 18.8743 131.719 18.7826 132.064 18.6004C132.274 18.4848 132.501 18.2812 132.743 17.9897L136.579 18.3265C135.992 19.299 135.284 19.9951 134.455 20.4186C133.625 20.8408 132.436 21.0519 130.886 21.0519C129.541 21.0519 128.481 20.8709 127.71 20.509C126.939 20.1472 126.299 19.5742 125.792 18.7863C125.284 17.9998 125.031 17.0749 125.031 16.0119C125.031 14.4991 125.541 13.2739 126.558 12.3391C127.575 11.403 128.98 10.9355 130.772 10.9355C132.226 10.9355 133.374 11.1454 134.216 11.5651C135.059 11.9847 135.699 12.5917 136.139 13.3883C136.58 14.1837 136.8 15.2203 136.8 16.4957V16.9154V16.9141ZM132.84 15.1374C132.764 14.4212 132.56 13.9072 132.232 13.5969C131.904 13.2865 131.472 13.132 130.935 13.132C130.317 13.132 129.822 13.3657 129.453 13.8331C129.217 14.1246 129.067 14.5594 129.003 15.1361H132.84V15.1374Z" fill="#EC4746"/>
<path d="M136.8 16.9141H128.993C129.063 17.5097 129.232 17.9533 129.499 18.2448C129.875 18.6645 130.366 18.8743 130.973 18.8743C131.356 18.8743 131.719 18.7826 132.064 18.6004C132.274 18.4848 132.501 18.2812 132.743 17.9897L136.579 18.3265C135.992 19.299 135.284 19.9951 134.455 20.4186C133.625 20.8408 132.436 21.0519 130.886 21.0519C129.541 21.0519 128.481 20.8709 127.71 20.509C126.939 20.1472 126.299 19.5742 125.792 18.7863C125.284 17.9998 125.031 17.0749 125.031 16.0119C125.031 14.4991 125.541 13.2739 126.558 12.3391C127.575 11.403 128.98 10.9355 130.772 10.9355C132.226 10.9355 133.374 11.1454 134.216 11.5651C135.059 11.9847 135.699 12.5917 136.139 13.3883C136.58 14.1837 136.8 15.2203 136.8 16.4957V16.9154V16.9141ZM132.84 15.1374C132.764 14.4212 132.56 13.9072 132.232 13.5969C131.903 13.2865 131.472 13.132 130.935 13.132C130.317 13.132 129.822 13.3657 129.451 13.8331C129.216 14.1246 129.065 14.5594 129.002 15.1361H132.839L132.84 15.1374Z" fill="#EC4746"/>
<path d="M137.342 11.1554H141.963L143.575 13.8532L145.455 11.1554H149.751L146.284 15.7669L149.998 20.8344H145.454L143.573 17.717L141.368 20.8344H137.148L140.839 15.7669L137.34 11.1554H137.342Z" fill="#EC4746"/>
<path d="M137.342 11.1554H141.963L143.575 13.8532L145.455 11.1554H149.751L146.284 15.7669L149.998 20.8344H145.454L143.573 17.717L141.368 20.8344H137.148L140.839 15.7669L137.34 11.1554H137.342Z" fill="#EC4746"/>
</svg>
