<svg width="116" height="33" viewBox="0 0 116 33" fill="none" xmlns="http://www.w3.org/2000/svg">
<path d="M0 15.9235C0.0567968 15.4359 0.103322 14.9465 0.171599 14.4607C0.679749 10.8402 2.14196 7.67954 4.76972 5.10978C6.86758 3.05845 9.38234 1.77569 12.2717 1.24519C15.2445 0.698971 18.1387 0.9751 20.952 2.08868C23.0329 2.91163 24.8335 4.14968 26.3906 5.75207C26.6008 5.96838 26.8389 6.15629 27.0359 6.33212C25.8685 7.51579 24.7489 8.64568 23.6383 9.78404C23.4897 9.9369 23.4269 9.83721 23.3326 9.74235C22.729 9.13631 22.1157 8.54116 21.4233 8.0324C19.9659 6.96172 18.3369 6.32125 16.5496 6.08077C14.7067 5.83304 12.9122 6.03424 11.198 6.75749C9.74911 7.36897 8.52012 8.29342 7.51832 9.51758C6.14614 11.1949 5.41382 13.1338 5.14011 15.2613C4.87909 17.2903 5.07183 19.2824 5.76125 21.2068C6.41562 23.034 7.49113 24.5802 9.03431 25.782C10.8512 27.1971 12.9267 27.8345 15.2119 27.8297C17.7206 27.8243 19.9465 27.0086 21.8921 25.437C22.4788 24.9633 23.0009 24.4134 23.4891 23.8829C23.7833 24.1554 24.0855 24.414 24.364 24.6962C25.199 25.5409 26.0244 26.3953 26.854 27.2454C26.941 27.3348 27.048 27.3886 26.8999 27.5487C25.3048 29.278 23.4849 30.6961 21.306 31.62C18.8583 32.6574 16.3061 33.0351 13.6626 32.7964C10.2869 32.4919 7.35156 31.1759 4.88754 28.8587C2.92806 27.0158 1.58366 24.7736 0.788508 22.202C0.384889 20.8999 0.132929 19.5706 0.0489419 18.2093C0.0441081 18.1314 0.0169182 18.0546 0 17.9773C0 17.2927 0 16.6081 0 15.9235Z" fill="white"/>
<path d="M115.998 32.4751C114.407 32.4751 112.817 32.4697 111.226 32.4805C110.992 32.4824 110.927 32.4256 110.928 32.1851C110.936 28.1688 110.935 24.1532 110.933 20.1369C110.932 19.2288 110.874 18.3291 110.555 17.4638C110.06 16.1164 109.142 15.3164 107.674 15.2367C106.121 15.1527 104.694 15.4959 103.504 16.5539C102.639 17.3243 102.215 18.3297 102.042 19.4547C101.964 19.9641 101.97 20.4771 101.97 20.9907C101.972 24.7048 101.968 28.419 101.976 32.1331C101.977 32.3778 101.927 32.4546 101.669 32.4521C100.169 32.4389 98.6688 32.4401 97.1692 32.4515C96.9341 32.4534 96.8918 32.3815 96.8918 32.1633C96.8973 21.5345 96.8973 10.905 96.8906 0.276164C96.8906 0.0350795 96.9704 0.00124311 97.1819 0.00184733C98.6815 0.0103064 100.182 0.0121191 101.682 3.46653e-05C101.924 -0.001778 101.977 0.0671032 101.976 0.299728C101.969 4.04409 101.971 7.78844 101.971 11.5328C101.971 11.6416 101.971 11.7497 101.971 11.8567C102.084 11.8808 102.137 11.8071 102.199 11.7654C103.873 10.6355 105.732 10.1183 107.736 10.2065C109.853 10.2996 111.758 11.0319 113.328 12.4657C114.124 13.1926 114.667 14.1406 115.102 15.1364C115.553 16.1666 115.854 17.2348 115.951 18.3575C115.954 18.3931 115.982 18.427 115.999 18.4614C115.998 23.132 115.998 27.8039 115.998 32.4751Z" fill="white"/>
<path d="M53.5557 31.1808C53.4107 31.1904 53.3333 31.2774 53.2445 31.3348C49.9726 33.4581 45.847 33.3548 42.7147 31.0376C41.4096 30.072 40.6108 28.7349 40.1045 27.2116C39.6556 25.8606 39.5087 24.4667 39.5093 23.0504C39.5118 19.0039 39.513 14.958 39.5039 10.9116C39.5033 10.6602 39.5631 10.5998 39.8145 10.6016C41.3045 10.6149 42.7945 10.6137 44.2845 10.6022C44.5232 10.6004 44.5806 10.6644 44.5806 10.9001C44.5727 14.9163 44.5757 18.9326 44.5745 22.9489C44.5739 23.828 44.641 24.6969 44.928 25.5361C45.4096 26.944 46.3606 27.7615 47.8736 27.8491C49.0862 27.9192 50.2373 27.6896 51.2892 27.063C52.5853 26.2914 53.224 25.0938 53.4656 23.6467C53.5484 23.1483 53.5551 22.6449 53.5557 22.1422C53.5575 18.4081 53.5605 14.6734 53.5496 10.9394C53.549 10.6511 53.6366 10.6004 53.9001 10.6028C55.3798 10.6149 56.8602 10.6143 58.3399 10.6028C58.5689 10.601 58.6184 10.6614 58.6178 10.8844C58.6112 17.9804 58.6112 25.0769 58.6184 32.1729C58.6184 32.4055 58.5544 32.4508 58.3332 32.4496C56.8336 32.44 55.3333 32.44 53.833 32.4514C53.6088 32.4533 53.5363 32.4025 53.5514 32.1723C53.572 31.8448 53.5557 31.5149 53.5557 31.1808Z" fill="white"/>
<path d="M90.8978 17.4644C90.2156 16.8922 89.5576 16.3049 88.7588 15.8965C86.4253 14.7025 83.1849 15.0862 81.2997 16.8378C80.2206 17.8408 79.626 19.1091 79.458 20.5719C79.2834 22.0921 79.4701 23.5519 80.2997 24.8685C81.4647 26.7162 83.148 27.7114 85.3383 27.8268C86.6446 27.8957 87.8785 27.6431 89.0241 26.9966C89.644 26.6468 90.1552 26.1604 90.679 25.6909C90.8168 25.5676 90.8935 25.5471 91.0385 25.6921C92.1225 26.7718 93.2162 27.8425 94.3098 28.9126C94.4131 29.0141 94.4796 29.0727 94.3346 29.2135C93.1533 30.3549 91.8693 31.3409 90.3274 31.9566C88.3316 32.7536 86.27 33.0001 84.1408 32.7397C82.1027 32.4908 80.2858 31.7131 78.6689 30.463C77.359 29.4497 76.3487 28.1839 75.5928 26.715C74.553 24.6939 74.2545 22.5272 74.4515 20.2958C74.6859 17.6342 75.6937 15.282 77.5976 13.3829C79.3559 11.6294 81.513 10.6397 83.9764 10.3074C85.9244 10.0446 87.8277 10.1896 89.6881 10.8446C91.3491 11.4294 92.7769 12.3823 94.0615 13.5684C94.4415 13.9194 94.4433 13.917 94.0844 14.2765C93.024 15.3369 91.9636 16.398 90.8978 17.4644Z" fill="white"/>
<path d="M64.4727 23.9089C64.4727 21.1615 64.4691 18.4141 64.4788 15.6667C64.4794 15.4238 64.4099 15.3725 64.1797 15.3755C63.1833 15.3882 62.187 15.3767 61.19 15.3851C61.0105 15.387 60.9519 15.3507 60.9531 15.1568C60.9622 13.7175 60.9616 12.2782 60.9537 10.8396C60.9525 10.6565 60.9942 10.6027 61.1846 10.6046C62.1809 10.6148 63.1779 10.5985 64.1736 10.6166C64.4365 10.6215 64.4788 10.5399 64.4782 10.2988C64.4685 8.04447 64.477 5.79012 64.4661 3.53577C64.4649 3.29287 64.535 3.24333 64.7646 3.24454C66.2642 3.25481 67.7639 3.25541 69.2636 3.24393C69.4968 3.24212 69.5421 3.30919 69.5415 3.52973C69.5331 5.79435 69.5403 8.05836 69.5301 10.323C69.5289 10.5635 69.5947 10.6172 69.8267 10.6154C71.0146 10.6033 72.2025 10.6148 73.3898 10.6052C73.6001 10.6033 73.6841 10.6342 73.6823 10.8765C73.669 12.2952 73.6726 13.7145 73.6798 15.1332C73.6811 15.3259 73.6351 15.3876 73.4309 15.3858C72.2333 15.3755 71.0352 15.3894 69.8376 15.3737C69.582 15.3706 69.5301 15.4389 69.5301 15.6861C69.5379 21.1609 69.5337 26.6357 69.5427 32.1106C69.5434 32.3897 69.4678 32.4532 69.1983 32.4508C67.7186 32.4381 66.2389 32.4393 64.7597 32.452C64.5156 32.4544 64.4661 32.3813 64.4667 32.1511C64.4751 29.4037 64.4727 26.6563 64.4727 23.9089Z" fill="white"/>
<path d="M35.2248 16.2238C35.2248 21.518 35.223 26.8128 35.2309 32.1069C35.2315 32.3752 35.1741 32.455 34.8919 32.4519C33.4225 32.4362 31.9524 32.4411 30.4829 32.4507C30.2654 32.4519 30.1953 32.4084 30.1953 32.1728C30.202 21.5439 30.202 10.9151 30.1959 0.286241C30.1959 0.062075 30.2473 0.0010487 30.4769 0.00286136C31.9566 0.0137373 33.4364 0.0137373 34.9161 0.0010487C35.165 -0.00136819 35.2315 0.0560328 35.2315 0.311618C35.223 5.61487 35.2248 10.9193 35.2248 16.2238Z" fill="white"/>
<path d="M85.5337 17.7285C87.643 17.7255 89.3463 19.4143 89.3499 21.5128C89.3542 23.6112 87.6527 25.3242 85.5585 25.3314C83.4654 25.3387 81.747 23.6305 81.7422 21.5381C81.738 19.4342 83.4316 17.7321 85.5337 17.7285Z" fill="#E52415"/>
</svg>
