<svg width="32" height="32" viewBox="0 0 32 32" fill="none" xmlns="http://www.w3.org/2000/svg">
<g id="cms 5">
<g id="Group">
<path id="Vector" d="M16.0182 1.63643C20.056 1.63643 24.0938 1.63323 28.1315 1.63803C29.999 1.64027 31.4515 2.73243 31.8854 4.44411C31.9677 4.76827 32 5.09819 32 5.43355C31.9981 10.83 32.0019 16.2265 31.9971 21.623C31.9952 23.8329 30.4106 25.4233 28.1914 25.4393C26.3328 25.4527 24.4739 25.4566 22.6157 25.431C22.2093 25.4255 22.1213 25.5497 22.1456 25.9225C22.1776 26.4204 22.177 26.9231 22.1459 27.4214C22.1226 27.7929 22.2051 27.9478 22.6176 27.9139C23.1267 27.8719 23.6422 27.8975 24.1549 27.9059C24.8886 27.918 25.4253 28.4271 25.4381 29.1103C25.4509 29.782 24.9139 30.3215 24.191 30.3631C24.1654 30.3647 24.1398 30.3647 24.1142 30.3647C18.705 30.3647 13.2957 30.3673 7.8864 30.3622C7.11584 30.3615 6.54944 29.8073 6.56224 29.1103C6.57504 28.4118 7.11552 27.9145 7.88224 27.9055C8.42048 27.8995 8.95968 27.886 9.49696 27.911C9.79744 27.9251 9.86336 27.8182 9.85344 27.5391C9.83264 26.9631 9.82688 26.3849 9.85504 25.8092C9.87072 25.4889 9.74944 25.4351 9.46368 25.4367C7.57952 25.4479 5.69504 25.4508 3.81088 25.4399C1.99296 25.4291 0.55648 24.3347 0.11936 22.6524C0.02816 22.3027 0 21.9471 0 21.5865C0.00192 16.2284 0 10.8703 0.00224 5.51227C0.00288 3.22811 1.58016 1.64187 3.86656 1.63835C7.91712 1.63163 11.9677 1.63643 16.0182 1.63643ZM24.2051 11.3878C23.5763 10.4956 22.9821 9.64635 22.3811 8.80155C21.9949 8.25851 21.5091 8.07099 20.9587 8.23707C20.4266 8.39771 20.0998 8.86107 20.0986 9.50651C20.0938 12.1846 20.0925 14.8627 20.0989 17.5407C20.1008 18.3279 20.6211 18.8671 21.3405 18.8636C22.0624 18.8601 22.5526 18.327 22.5562 17.5247C22.5613 16.2819 22.5562 15.039 22.5603 13.7958C22.5606 13.6895 22.5142 13.5695 22.6262 13.4483C23.0752 13.9865 23.3434 14.7439 24.2182 14.7359C25.0794 14.7279 25.344 13.9695 25.7968 13.4355C25.8262 13.4867 25.8368 13.4966 25.8368 13.5065C25.8403 14.8134 25.8413 16.1199 25.8467 17.4268C25.8496 18.1254 26.3654 18.6601 27.0406 18.6739C27.6909 18.6873 28.2685 18.1689 28.2736 17.5033C28.2944 14.7868 28.3024 12.0703 28.2998 9.35387C28.2992 8.76123 27.8848 8.31099 27.3021 8.20635C26.7619 8.10939 26.3565 8.33371 26.0502 8.76795C25.4458 9.62523 24.8422 10.4828 24.2051 11.3878ZM16.0486 14.7923C16.1786 14.7491 16.2496 14.7222 16.3226 14.702C17.9379 14.2585 19.0202 12.7583 18.8426 11.2086C18.6541 9.56475 17.1936 8.24443 15.5066 8.21403C14.5968 8.19771 13.6864 8.20539 12.7763 8.21563C12.0109 8.22427 11.4896 8.72507 11.4864 9.49403C11.4752 12.1987 11.4806 14.9033 11.4838 17.6079C11.4842 17.9241 11.5795 18.215 11.7997 18.4524C12.1571 18.838 12.5968 18.9532 13.0944 18.807C13.5754 18.6655 13.9142 18.2326 13.9328 17.7247C13.951 17.2345 13.9366 16.7433 13.9366 16.1593C14.192 16.3705 14.359 16.5075 14.5248 16.6457C15.2922 17.2863 16.0538 17.934 16.8285 18.5657C17.2682 18.9241 17.8128 18.9615 18.2637 18.6998C18.7136 18.439 18.9338 17.9596 18.8512 17.4233C18.7949 17.0569 18.5741 16.8019 18.2944 16.5807C17.5616 16.0012 16.8326 15.4172 16.0486 14.7923ZM6.15488 13.5583C6.15488 12.7254 6.16864 11.8924 6.14784 11.0601C6.14016 10.7491 6.24416 10.663 6.5424 10.6687C7.36224 10.6847 8.18272 10.6889 9.00224 10.6687C9.73984 10.6505 10.2506 10.1235 10.2477 9.43003C10.2448 8.73499 9.72544 8.22427 8.98656 8.21627C8.07712 8.20635 7.16704 8.19963 6.2576 8.21851C4.7904 8.24923 3.70368 9.35771 3.696 10.8297C3.6864 12.6361 3.6864 14.4428 3.696 16.2492C3.704 17.7222 4.78848 18.8281 6.25792 18.8601C7.16704 18.8796 8.07712 18.8636 8.98688 18.8659C9.24992 18.8665 9.49376 18.8092 9.71296 18.6579C10.1514 18.3558 10.353 17.8102 10.2106 17.3052C10.0634 16.7833 9.59712 16.4201 9.00224 16.4092C8.1696 16.3939 7.33664 16.3971 6.504 16.4089C6.24 16.4127 6.14496 16.3295 6.14976 16.0569C6.16448 15.2239 6.15488 14.391 6.15488 13.5583Z" fill="black"/>
<path id="Vector_2" d="M14.9066 10.6751C15.1635 10.6815 15.5146 10.6435 15.8435 10.7836C16.1418 10.9107 16.3747 11.1023 16.3946 11.4566C16.4141 11.8044 16.1885 12.0019 15.9162 12.1359C15.3229 12.4284 14.6823 12.2799 14.0605 12.2988C13.936 12.3027 13.9447 12.1839 13.9443 12.0963C13.9424 11.6988 13.9472 11.3014 13.9415 10.9043C13.9392 10.7433 13.9994 10.6691 14.1648 10.6735C14.3827 10.6799 14.601 10.6751 14.9066 10.6751Z" fill="black"/>
</g>
</g>
</svg>
