<svg width="32" height="33" viewBox="0 0 32 33" fill="none" xmlns="http://www.w3.org/2000/svg">
<rect width="32" height="33" fill="#F5F5F5"/>
<g id="portfolio" clip-path="url(#clip0_1258_2281)">
<rect width="1920" height="3995" transform="translate(-284 -1165)" fill="white"/>
<g id="Group 39580">
<g id="mynaui:select-multiple-solid">
<path id="Vector" d="M8.09342 0.751465C6.9909 0.751465 6.07007 0.751465 5.31647 0.813404C4.5319 0.875344 3.79689 1.01574 3.09904 1.37086C2.03187 1.91452 1.16394 2.78172 0.619395 3.84844C0.264275 4.54629 0.123879 5.28131 0.0619399 6.06587C4.34565e-07 6.81947 0 7.73824 0 8.84283V24.658C0 25.7626 4.34565e-07 26.6814 0.0619399 27.435C0.123879 28.2196 0.264275 28.9546 0.619395 29.6504C1.16289 30.7194 2.03092 31.5889 3.09904 32.1341C3.79483 32.4872 4.53191 32.6255 5.31441 32.6916C6.06594 32.7515 6.98677 32.7515 8.08517 32.7515H23.9169C25.0174 32.7515 25.9361 32.7515 26.6877 32.6895C27.4722 32.6276 28.2052 32.4872 28.901 32.1321C29.9703 31.588 30.8398 30.7192 31.3847 29.6504C31.7378 28.9546 31.8761 28.2175 31.9422 27.4329C32.0041 26.6814 32.0041 25.7606 32.0041 24.658V8.84489C32.0041 7.7403 32.0041 6.82153 31.9422 6.06794C31.8761 5.28337 31.7378 4.54835 31.3847 3.8505C30.8395 2.78239 29.97 1.91436 28.901 1.37086C28.2052 1.01574 27.4702 0.875344 26.6856 0.813404C25.9341 0.751465 25.0132 0.751465 23.9107 0.751465H8.09342ZM21.5425 11.3679C21.8754 11.6083 22.0992 11.9711 22.1646 12.3765C22.2301 12.7819 22.1318 13.1966 21.8915 13.5296L16.1105 21.5322C15.9195 21.7957 15.6717 22.0128 15.3855 22.1675C15.0992 22.3221 14.7817 22.4104 14.4567 22.4256C14.1317 22.4409 13.8074 22.3828 13.5079 22.2557C13.2083 22.1285 12.9413 21.9356 12.7265 21.6911L9.88141 18.4373C9.74206 18.2851 9.63453 18.1066 9.56515 17.9122C9.49576 17.7179 9.46591 17.5117 9.47736 17.3056C9.48881 17.0996 9.54132 16.8979 9.63181 16.7125C9.7223 16.527 9.84894 16.3615 10.0043 16.2257C10.1596 16.0899 10.3406 15.9865 10.5364 15.9216C10.7323 15.8567 10.9392 15.8316 11.1449 15.8478C11.3506 15.864 11.551 15.9211 11.7343 16.0159C11.9177 16.1106 12.0802 16.241 12.2124 16.3994L14.2874 18.7697L19.3809 11.7168C19.6213 11.3839 19.9841 11.1602 20.3894 11.0947C20.7948 11.0293 21.2096 11.1275 21.5425 11.3679Z" fill="#8DC63F"/>
</g>
</g>
</g>
<defs>
<clipPath id="clip0_1258_2281">
<rect width="1920" height="3995" fill="white" transform="translate(-284 -1165)"/>
</clipPath>
</defs>
</svg>
