<svg width="93" height="93" viewBox="0 0 93 93" fill="none" xmlns="http://www.w3.org/2000/svg">
<g id="Group">
<g id="Group_2">
<g id="Group_3">
<path id="Vector" d="M38.531 32.2942C37.2105 31.7485 35.9482 31.0859 34.7247 30.3064C33.7926 31.3003 32.7827 32.1773 31.6758 32.9178C32.103 33.7948 32.472 34.6912 32.8021 35.6072C33.1711 36.679 33.4818 37.7509 33.7149 38.8422C36.2589 37.3222 38.531 35.3538 40.4148 32.9763C39.7739 32.7814 39.1525 32.5475 38.531 32.2942Z" fill="#27AAE1"/>
<path id="Vector_2" d="M5.53693 27.987C5.18737 27.4608 4.70187 27.0906 4.17753 26.8567C3.45899 26.5449 2.60452 26.5254 1.84714 26.8567C1.01208 27.2075 0.390638 27.9091 0.138179 28.786C-0.133701 29.624 0.0022387 30.54 0.487738 31.2805C3.53667 35.8797 7.92559 39.2707 13.169 41.0441C17.4414 42.4863 21.8497 42.7006 26.025 41.8431C25.8891 40.7518 25.6366 39.6605 25.2676 38.5886C24.9569 37.6727 24.5879 36.8152 24.1607 35.9772C21.0341 36.5229 17.7715 36.3085 14.6449 35.1587C10.9163 33.7945 7.75081 31.3195 5.53693 27.987Z" fill="#27AAE1"/>
<path id="Vector_3" d="M43.6406 10.1949C42.8444 9.78566 41.8928 9.74669 41.0772 10.0975C39.7566 10.6626 39.0186 12.1242 39.3294 13.5469C40.0479 16.8209 39.8731 20.1144 38.8633 23.252C40.5722 24.3434 42.4366 25.1619 44.4174 25.6296C45.9127 21.3032 46.1846 16.704 45.1942 12.1827C45 11.3447 44.4368 10.6042 43.6406 10.1949Z" fill="#27AAE1"/>
<path id="Vector_4" d="M4.9152 62.6179C3.47813 62.3256 2.04105 63.1051 1.51671 64.4498C1.18657 65.2878 1.22541 66.2232 1.65265 67.0028C2.07989 67.8018 2.83727 68.3669 3.73059 68.5423C9.10992 69.6142 14.5669 68.8931 19.5385 66.4376C23.6166 64.4108 26.8986 61.3902 29.229 57.8043C28.0444 56.713 26.685 55.7776 25.1897 55.037C24.8207 54.8616 24.4711 54.7057 24.1021 54.5498C22.2572 57.3756 19.655 59.7337 16.4507 61.2343C12.7997 62.9103 8.81862 63.3975 4.9152 62.6179Z" fill="#8DC63F"/>
<path id="Vector_5" d="M31.8305 35.9779C29.9661 30.7161 26.5288 26.3507 21.868 23.369C21.1106 22.8818 20.1591 22.7454 19.3046 23.0377C18.4501 23.3106 17.7704 23.9537 17.4403 24.7722C16.8965 26.1169 17.4014 27.6564 18.6249 28.4555C22.237 30.7746 24.8781 34.1655 26.2569 38.2775C27.2279 41.1423 27.4221 44.124 26.9755 46.9888C27.4415 47.1836 27.8882 47.3785 28.3543 47.5734C29.8496 48.275 31.2479 49.1325 32.549 50.1264C33.6559 45.5661 33.5006 40.6746 31.8305 35.9779Z" fill="#8DC63F"/>
<path id="Vector_6" d="M27.8854 86.452C26.6814 87.2706 26.2153 88.8296 26.7785 90.1743C27.128 91.0123 27.8272 91.6164 28.7011 91.8893C29.5555 92.1426 30.4683 92.0062 31.1868 91.4995C35.498 88.5958 38.7218 84.4643 40.5472 79.5727C42.0232 75.5776 42.3145 71.2902 41.5959 67.1392C40.5084 67.2756 39.4403 67.529 38.3722 67.8798C37.5177 68.1721 36.7021 68.5034 35.9253 68.9126C36.236 71.68 35.9641 74.5253 34.9931 77.2536C33.6337 81.0343 31.1674 84.2304 27.8854 86.452Z" fill="#662D91"/>
<path id="Vector_7" d="M27.9065 48.5083C22.8573 46.1307 17.3226 45.5266 11.9045 46.7738C11.05 46.9687 10.312 47.5339 9.92363 48.3329C9.51581 49.1319 9.49639 50.0868 9.84595 50.9053C10.4091 52.2305 11.8656 52.9711 13.3027 52.6398C17.478 51.6849 21.7504 52.1915 25.6344 54.1014C28.897 55.6994 31.4992 58.2134 33.3053 61.1951C34.0044 60.8833 34.7229 60.591 35.4609 60.3181C36.6261 59.9089 37.7913 59.5971 38.9759 59.3437C36.5096 54.686 32.7227 50.7689 27.9065 48.5083Z" fill="#662D91"/>
<path id="Vector_8" d="M62.2622 88.4009C61.9709 89.8236 62.7283 91.2657 64.0489 91.8113C64.0489 91.8113 64.0683 91.8113 64.0683 91.8308C64.9034 92.1621 65.8355 92.1232 66.6123 91.6944C67.4085 91.2657 67.9717 90.5056 68.1465 89.6092C69.234 84.2109 68.5349 78.7348 66.088 73.7458C64.0877 69.6532 61.0776 66.3403 57.5044 63.9822C56.9218 64.6838 56.3974 65.4438 55.9313 66.2428C55.3487 67.2367 54.8827 68.2501 54.5137 69.3025C57.213 71.1538 59.4658 73.7068 60.9028 76.8249C62.573 80.4692 63.0585 84.4838 62.2622 88.4009Z" fill="#A7A9AC"/>
<path id="Vector_9" d="M35.7925 61.2925C30.5491 63.1439 26.1796 66.5933 23.1889 71.251C22.7034 72.011 22.5675 72.9659 22.8394 73.8234C23.1112 74.6614 23.7327 75.3435 24.5483 75.6943C24.5483 75.6943 24.5677 75.6943 24.5677 75.7138C25.9077 76.2594 27.4419 75.7528 28.2381 74.525C30.5491 70.9002 33.9476 68.2693 38.0452 66.9051C40.997 65.9112 44.0654 65.7358 47.0172 66.262C47.4833 64.9758 48.0659 63.7285 48.7456 62.5203C49.1146 61.8771 49.503 61.2535 49.9108 60.6494C45.3665 59.4996 40.4727 59.636 35.7925 61.2925Z" fill="#A7A9AC"/>
<path id="Vector_10" d="M67.5068 54.6471C67.7399 55.3487 68.0312 56.0308 68.3419 56.6934C71.5462 56.1867 74.8864 56.518 78.0325 57.7847C81.9941 59.3827 85.2373 62.1695 87.354 65.8723C88.092 67.139 89.6068 67.7237 90.9662 67.256C91.8206 66.9636 92.4809 66.301 92.8111 65.4631C93.1218 64.6251 93.0441 63.7091 92.6169 62.9491C89.8981 58.155 85.7422 54.4717 80.6347 52.328C80.6347 52.328 80.6347 52.328 80.6153 52.328C76.0516 50.4182 71.216 49.9894 66.6523 50.8469C66.8077 52.1136 67.0796 53.3999 67.5068 54.6471Z" fill="#27AAE1"/>
<path id="Vector_11" d="M49.66 63.0074C46.9217 67.8989 45.9119 73.3946 46.7275 78.8903C46.8635 79.7672 47.3684 80.5273 48.1258 80.995C48.9026 81.4627 49.8347 81.5602 50.6892 81.2678C52.0486 80.8001 52.8837 79.397 52.6701 77.9354C52.0486 73.6869 52.8643 69.458 55.0393 65.6967C56.4958 63.1828 58.496 61.1365 60.7876 59.5969C60.4963 58.9538 60.2244 58.3107 59.9914 57.6286C59.5059 56.3034 59.1563 54.9782 58.9039 53.6335C55.1558 55.8162 51.9127 58.9928 49.66 63.0074Z" fill="#27AAE1"/>
<path id="Vector_12" d="M87.7243 30.482C89.1613 30.7548 90.5984 29.9753 91.1227 28.6306C91.4529 27.7926 91.3946 26.8571 90.9674 26.0776C90.6373 25.4735 90.1129 25.0058 89.4721 24.7329C89.2779 24.655 89.0837 24.5965 88.87 24.5575C83.4907 23.5052 78.0143 24.2847 73.0816 26.7792C69.217 28.728 66.071 31.5733 63.7794 34.9642C64.731 35.7633 65.7991 36.4648 66.9255 37.03C67.644 37.4003 68.3625 37.6926 69.1005 37.9654C70.8871 35.4515 73.2952 33.3467 76.2082 31.9631C79.8203 30.2481 83.8014 29.7414 87.7243 30.482Z" fill="#8DC63F"/>
<path id="Vector_13" d="M63.6403 44.4354C62.4751 43.8702 61.3876 43.2271 60.3389 42.506C59.0766 47.2417 59.1931 52.3866 60.9798 57.2976C62.8829 62.5594 66.3397 66.8858 71.0199 69.848C71.7967 70.3352 72.7289 70.4521 73.5833 70.1793C74.4378 69.9065 75.1175 69.2634 75.4477 68.4254C75.972 67.0807 75.4671 65.5411 74.2242 64.7421C70.5927 62.4425 67.9321 59.071 66.5339 54.9785C65.4464 51.8409 65.291 48.5474 65.9125 45.4098C65.6212 45.2929 65.3299 45.1954 65.0386 45.059C64.5531 44.8836 64.087 44.6692 63.6403 44.4354Z" fill="#8DC63F"/>
<path id="Vector_14" d="M64.6524 5.57588C65.8759 4.77686 66.3614 3.2178 65.7982 1.87312C65.4875 1.13256 64.9049 0.547917 64.1669 0.236105C64.0892 0.197129 64.0115 0.158152 63.9144 0.138664C63.06 -0.134171 62.1472 0.00224657 61.4093 0.489452C56.7873 3.51013 53.3888 7.87549 51.5633 13.1373C50.0874 17.4052 49.8544 21.8485 50.67 26.019C51.7575 25.8826 52.8451 25.6487 53.9132 25.298C54.8259 25.0056 55.6804 24.6354 56.5154 24.2066C55.9911 21.069 56.2436 17.7755 57.4088 14.6769C58.8264 10.9156 61.3316 7.75856 64.6524 5.57588Z" fill="#662D91"/>
<path id="Vector_15" d="M64.0903 43.5192C69.1201 45.9747 74.6353 46.6568 80.0729 45.4875C80.9274 45.2926 81.6654 44.7469 82.0732 43.9479C82.5004 43.1489 82.5393 42.2135 82.1897 41.3755C81.6265 40.0308 80.1895 39.2902 78.7718 39.5826C74.5771 40.479 70.3241 39.9139 66.479 37.9455C63.6048 36.4839 61.255 34.3207 59.5266 31.7483C58.6527 32.1575 57.7594 32.5278 56.8272 32.8591C55.7591 33.2294 54.6716 33.5217 53.6035 33.7361C55.9728 37.8481 59.546 41.2975 64.0903 43.5192Z" fill="#662D91"/>
<path id="Vector_16" d="M56.4787 31.9043C61.7415 30.0724 66.111 26.662 69.1405 22.0043C69.6454 21.2442 69.7619 20.3088 69.4901 19.4318C69.2376 18.5744 68.6162 17.8923 67.7811 17.5415C67.7811 17.5415 67.7811 17.5415 67.7617 17.5415C66.4411 16.9763 64.8875 17.483 64.0913 18.7108C61.7415 22.3161 58.343 24.9275 54.2454 26.2917C45.351 29.2149 35.3303 24.8106 31.4463 16.2358C29.7956 12.572 29.3296 8.5769 30.1452 4.65977C30.4365 3.21764 29.6985 1.795 28.3586 1.22985C28.3586 1.22985 28.3586 1.22985 28.3391 1.22985C27.5041 0.879058 26.5719 0.937522 25.7951 1.34677C24.9989 1.77552 24.4357 2.53556 24.2415 3.41253C23.1152 8.81076 23.7949 14.287 26.2224 19.2759C31.6794 30.5791 44.6908 35.9968 56.4787 31.9043Z" fill="#A7A9AC"/>
</g>
</g>
<path id="Vector_17" d="M46.4948 56.1672C52.0827 56.1672 56.6126 51.6214 56.6126 46.0138C56.6126 40.4063 52.0827 35.8605 46.4948 35.8605C40.9069 35.8605 36.377 40.4063 36.377 46.0138C36.377 51.6214 40.9069 56.1672 46.4948 56.1672Z" fill="black"/>
<g id="Group_4">
<path id="Vector_18" d="M43.4244 52.3276C43.7546 52.3276 44.0265 52.2107 44.2401 51.9769C44.4537 51.743 44.5896 51.4702 44.6091 51.1583V40.8491C44.5896 40.5178 44.4731 40.2449 44.2401 40.0306C44.007 39.8162 43.7352 39.6993 43.4244 39.6993H43.1914V39.5044H49.833V39.6993H49.6C49.2699 39.6993 48.998 39.8162 48.7844 40.0306C48.5513 40.2449 48.4348 40.5178 48.4154 40.8491V51.1583C48.4154 51.4896 48.5319 51.7625 48.7649 51.9769C48.998 52.2107 49.2699 52.3276 49.6 52.3276H49.833V52.5225H43.1914V52.3276H43.4244Z" fill="white"/>
</g>
</g>
</svg>
