<svg width="220" height="220" viewBox="0 0 220 220" fill="none" xmlns="http://www.w3.org/2000/svg">
<g id="bxs:quote-left">
<path id="Vector" d="M186.166 162.323C173.305 176.266 153.844 183.333 128.334 183.333L119.167 183.333L119.167 157.492L126.537 156.017C139.095 153.505 147.831 148.564 152.506 141.313C154.946 137.407 156.33 132.935 156.521 128.333L128.334 128.333C125.903 128.333 123.571 127.367 121.852 125.648C120.133 123.929 119.167 121.598 119.167 119.167L119.167 54.9999C119.167 44.8891 127.389 36.6666 137.5 36.6666L192.5 36.6666C194.931 36.6666 197.263 37.6324 198.982 39.3514C200.701 41.0705 201.667 43.4021 201.667 45.8333L201.667 91.6666L201.639 118.424C201.722 119.442 203.464 143.55 186.166 162.323ZM36.667 36.6666L91.667 36.6666C94.0981 36.6666 96.4297 37.6323 98.1488 39.3514C99.8679 41.0705 100.834 43.4021 100.834 45.8333L100.834 91.6666L100.806 118.424C100.889 119.442 102.63 143.55 85.3328 162.323C72.472 176.266 53.0111 183.333 27.5003 183.333L18.3336 183.333L18.3336 157.492L25.7036 156.017C38.262 153.505 46.9978 148.564 51.6728 141.313C54.1129 137.407 55.4964 132.935 55.6878 128.333L27.5003 128.333C25.0692 128.333 22.7376 127.367 21.0185 125.648C19.2994 123.929 18.3336 121.598 18.3336 119.167L18.3336 54.9999C18.3336 44.8891 26.5561 36.6666 36.667 36.6666Z" fill="white"/>
</g>
</svg>
