<svg width="32" height="32" viewBox="0 0 32 32" fill="none" xmlns="http://www.w3.org/2000/svg">
<path d="M20.0387 4.75096C19.9728 5.00356 20.0083 5.27191 20.1376 5.49869C20.2669 5.72546 20.4798 5.89268 20.7307 5.96462C20.9817 6.03656 21.2508 6.00752 21.4806 5.8837C21.7105 5.75988 21.8827 5.5511 21.9607 5.30196L22.7877 2.41796C22.8282 2.29048 22.8428 2.15615 22.8305 2.02293C22.8182 1.88972 22.7793 1.76032 22.7161 1.64241C22.6529 1.52451 22.5667 1.42048 22.4625 1.33649C22.3584 1.2525 22.2385 1.19026 22.1099 1.15346C21.9812 1.11665 21.8465 1.10603 21.7137 1.12222C21.5809 1.1384 21.4527 1.18107 21.3367 1.2477C21.2207 1.31432 21.1193 1.40354 21.0383 1.51009C20.9574 1.61663 20.8987 1.73832 20.8657 1.86796L20.0387 4.75096ZM28.7067 3.29296C28.8942 3.48049 28.9995 3.7348 28.9995 3.99996C28.9995 4.26513 28.8942 4.51944 28.7067 4.70696L25.7067 7.70696C25.6145 7.80247 25.5041 7.87866 25.3821 7.93107C25.2601 7.98347 25.1289 8.01106 24.9961 8.01221C24.8633 8.01337 24.7316 7.98807 24.6087 7.93779C24.4858 7.8875 24.3742 7.81325 24.2803 7.71936C24.1864 7.62547 24.1122 7.51381 24.0619 7.39092C24.0116 7.26802 23.9863 7.13634 23.9874 7.00356C23.9886 6.87078 24.0162 6.73956 24.0686 6.61756C24.121 6.49556 24.1972 6.38521 24.2927 6.29296L27.2927 3.29296C27.4802 3.10549 27.7345 3.00018 27.9997 3.00018C28.2649 3.00018 28.5192 3.10549 28.7067 3.29296ZM25.9997 11.002C25.9997 10.7367 26.1051 10.4824 26.2926 10.2949C26.4801 10.1073 26.7345 10.002 26.9997 10.002H29.9997C30.2649 10.002 30.5193 10.1073 30.7068 10.2949C30.8943 10.4824 30.9997 10.7367 30.9997 11.002C30.9997 11.2672 30.8943 11.5215 30.7068 11.7091C30.5193 11.8966 30.2649 12.002 29.9997 12.002H26.9997C26.7345 12.002 26.4801 11.8966 26.2926 11.7091C26.1051 11.5215 25.9997 11.2672 25.9997 11.002ZM11.9557 5.65896C12.1682 5.2337 12.4788 4.86503 12.8618 4.58336C13.2448 4.30168 13.6892 4.11507 14.1585 4.03889C14.6278 3.96271 15.1085 3.99915 15.5609 4.14521C16.0133 4.29127 16.4246 4.54277 16.7607 4.87896L27.1207 15.239C27.4567 15.5751 27.708 15.9863 27.8539 16.4386C27.9999 16.8909 28.0363 17.3714 27.9601 17.8406C27.8839 18.3097 27.6974 18.754 27.4158 19.1369C27.1343 19.5198 26.7658 19.8304 26.3407 20.043L21.5917 22.418C22.1214 23.7027 22.145 25.1404 21.658 26.4419C21.171 27.7434 20.2093 28.8123 18.9663 29.4337C17.7234 30.0551 16.2912 30.183 14.9578 29.7916C13.6244 29.4002 12.4886 28.5186 11.7787 27.324L9.0617 28.683C8.49853 28.9642 7.86117 29.0612 7.23985 28.9601C6.61853 28.8591 6.04473 28.5652 5.5997 28.12L3.8797 26.4C3.43446 25.9547 3.14059 25.3807 3.03972 24.7592C2.93886 24.1377 3.03611 23.5001 3.3177 22.937L11.9557 5.65896ZM13.5757 26.426C14.0462 27.1427 14.7634 27.6618 15.5912 27.8848C16.4191 28.1078 17.3 28.0192 18.0668 27.6357C18.8337 27.2523 19.4331 26.6008 19.7514 25.8047C20.0697 25.0086 20.0848 24.1234 19.7937 23.317L13.5757 26.426ZM15.3457 6.29296C15.2336 6.18124 15.0967 6.09771 14.946 6.04922C14.7954 6.00074 14.6354 5.98869 14.4793 6.01407C14.3231 6.03946 14.1751 6.10154 14.0476 6.19522C13.9201 6.2889 13.8166 6.41151 13.7457 6.55296L5.1057 23.832C5.01187 24.0196 4.97944 24.232 5.013 24.4391C5.04656 24.6462 5.14441 24.8375 5.2927 24.986L7.0127 26.706C7.16108 26.8546 7.35251 26.9528 7.55983 26.9865C7.76715 27.0203 7.97983 26.9879 8.1677 26.894L25.4467 18.254C25.5883 18.1831 25.7111 18.0796 25.8049 17.952C25.8987 17.8244 25.9609 17.6763 25.9863 17.52C26.0117 17.3636 25.9995 17.2035 25.9509 17.0528C25.9023 16.9021 25.8186 16.765 25.7067 16.653L15.3457 6.29296Z" fill="black"/>
</svg>
