<svg width="40" height="40" viewBox="0 0 40 40" fill="none" xmlns="http://www.w3.org/2000/svg">
<g clip-path="url(#clip0_1258_2662)">
<path d="M36.8989 0C36.9549 0.0268 37.0089 0.0616 37.0677 0.0796C38.8077 0.6124 39.4129 2.5284 38.2729 3.9532C37.1509 5.3556 36.0049 6.7388 34.8697 8.1304C33.6765 9.5924 32.4793 11.0516 31.2945 12.5204C31.1253 12.73 31.0309 12.762 30.8257 12.5544C29.3249 11.036 27.8141 9.5276 26.2977 8.0248C26.1169 7.8456 26.1017 7.7536 26.3117 7.5832C29.1797 5.2516 32.0417 2.9124 34.9017 0.5712C35.2409 0.2936 35.6393 0.1484 36.0393 0C36.3261 0 36.6125 0 36.8989 0Z" fill="black"/>
<path d="M20.0064 9.87095C19.3804 10.6841 18.952 11.5097 18.7428 12.4373C18.6968 12.6413 18.5548 12.6389 18.3976 12.6705C16.1076 13.1305 14.3856 14.3349 13.4336 16.5169C12.9728 17.5733 12.8464 18.6969 12.874 19.8385C12.8852 20.3081 12.8768 20.7753 12.8316 21.2421C12.7724 21.8521 12.5184 22.3785 12.196 22.8969C11.2188 24.4669 11.9948 26.4737 13.7516 26.9769C14.5192 27.1969 15.28 27.1325 15.9192 26.6673C16.7208 26.0845 17.612 25.9605 18.5444 25.9745C19.7088 25.9921 20.8632 25.9577 21.9708 25.5533C24.2572 24.7185 25.5824 23.0417 26.1064 20.7113C26.2 20.2945 26.3512 20.1221 26.756 20.0117C27.9952 19.6737 29.0216 18.9753 29.8384 17.9869C31.0904 16.4717 32.3264 14.9437 33.5712 13.4229C33.634 13.3461 33.6724 13.2393 33.8012 13.2085C33.872 13.3113 33.8388 13.4297 33.8388 13.5385C33.8408 18.3813 33.836 23.2245 33.8492 28.0673C33.8504 28.4353 33.7408 28.5125 33.3928 28.5121C22.8084 28.5033 12.2244 28.5033 1.64001 28.5121C1.29321 28.5125 1.18561 28.4373 1.18641 28.0701C1.20001 23.0845 1.19401 18.0981 1.19681 13.1121C1.19801 11.2325 2.53481 9.86055 4.40041 9.85695C9.50361 9.84735 14.6072 9.85335 19.7104 9.85415C19.7848 9.85415 19.8592 9.86215 20.0064 9.87095Z" fill="black"/>
<path d="M17.4844 30.8491C22.7828 30.8491 28.0812 30.8535 33.3796 30.8403C33.756 30.8395 33.8516 30.9323 33.8528 31.3099C33.8564 32.2183 33.7384 33.0755 33.1392 33.8035C32.4532 34.6367 31.5544 34.9839 30.492 34.9819C27.7452 34.9767 24.9984 34.9875 22.2516 34.9711C21.886 34.9691 21.794 35.0751 21.8088 35.4251C21.8364 36.0747 21.8256 36.7267 21.812 37.3775C21.8072 37.6031 21.8824 37.6659 22.1008 37.6603C22.634 37.6467 23.1684 37.6519 23.702 37.6571C24.4344 37.6639 24.9476 38.1463 24.95 38.8219C24.9524 39.4995 24.4408 39.9971 23.7128 39.9979C19.586 40.0015 15.4592 40.0011 11.3324 39.9983C10.5984 39.9979 10.0872 39.5135 10.082 38.8371C10.0768 38.1451 10.594 37.6623 11.352 37.6567C11.8728 37.6531 12.3936 37.6451 12.914 37.6607C13.1484 37.6675 13.232 37.6047 13.2256 37.3575C13.2088 36.6939 13.204 36.0291 13.2268 35.3663C13.2372 35.0595 13.1476 34.9719 12.8384 34.9739C10.5864 34.9867 8.33401 34.9855 6.08201 34.9779C5.35401 34.9755 4.62361 35.0283 3.89761 34.9347C2.40281 34.7423 1.23721 33.4631 1.20281 31.9571C1.19481 31.5987 1.04001 31.1331 1.27521 30.9115C1.45801 30.7391 1.91681 30.8515 2.25281 30.8511C7.33041 30.8483 12.4072 30.8491 17.4844 30.8491Z" fill="black"/>
<path d="M18.9068 23.5877C18.242 23.5781 17.582 23.6121 16.9264 23.7345C16.164 23.8765 15.442 24.1105 14.8172 24.5893C14.63 24.7329 14.4328 24.7661 14.256 24.5881C14.094 24.4249 14.114 24.2349 14.2452 24.0577C15.062 22.9573 15.2356 21.6801 15.2536 20.3637C15.2636 19.6493 15.2136 18.9329 15.3696 18.2265C15.7604 16.4573 17.0308 15.2637 18.8584 14.9501C20.5572 14.6585 22.342 15.4861 23.2812 16.9705C24.8576 19.4617 23.5912 23.3997 19.8424 23.5861C19.5316 23.6013 19.2188 23.5877 18.9068 23.5877Z" fill="black"/>
<path d="M29.56 14.6217C29.5008 14.6993 29.4556 14.7621 29.4068 14.8217C28.9372 15.3953 28.4732 15.9737 27.9952 16.5405C27.568 17.0473 27.0308 17.4045 26.418 17.6549C26.2184 17.7365 26.1128 17.7481 26.0336 17.4869C25.3128 15.1053 23.7588 13.5401 21.3752 12.8169C21.1208 12.7397 21.1188 12.6393 21.2036 12.4357C21.4624 11.8121 21.8304 11.2677 22.35 10.8345C22.9092 10.3681 23.482 9.9177 24.036 9.4445C24.2064 9.2989 24.3 9.3249 24.4472 9.4729C26.0888 11.1245 27.7376 12.7693 29.3836 14.4169C29.446 14.4793 29.4992 14.5505 29.56 14.6217Z" fill="black"/>
</g>
<defs>
<clipPath id="clip0_1258_2662">
<rect width="40" height="40" fill="white"/>
</clipPath>
</defs>
</svg>
