<svg width="32" height="32" viewBox="0 0 32 32" fill="none" xmlns="http://www.w3.org/2000/svg">
<g id="cms 3" clip-path="url(#clip0_1258_2669)">
<g id="Group">
<path id="Vector" d="M16.039 8.1833C21.2253 8.1833 26.4115 8.18682 31.5977 8.1753C31.9331 8.17466 32.0173 8.25434 32.0169 8.59194C32.0061 14.9875 32.0112 21.3833 32.0073 27.7788C32.0061 29.9305 30.6566 31.5699 28.5875 31.9468C28.3603 31.9881 28.1248 31.9967 27.8931 31.9967C19.9741 31.9993 12.0553 32.0035 4.1363 31.9958C2.06653 31.9939 0.441895 30.6214 0.065255 28.5878C0.015015 28.3158 0.012455 28.0326 0.012135 27.7545C0.00925499 21.359 0.012775 14.9631 0.00189499 8.56762C0.00125499 8.2345 0.106535 8.17658 0.410535 8.1769C5.61981 8.18586 10.8294 8.1833 16.039 8.1833ZM18.9421 13.0236C18.9433 12.5094 18.6134 12.0771 18.1187 11.9455C17.4928 11.7791 16.9424 12.1231 16.7264 12.8271C16.0662 14.9782 15.4099 17.1305 14.752 19.2822C14.2128 21.0457 13.6688 22.8079 13.1376 24.5737C12.9347 25.2476 13.3017 25.8803 13.9513 26.0252C14.5683 26.1628 15.0857 25.8022 15.3075 25.078C16.4822 21.2409 17.6563 17.4035 18.8304 13.5663C18.8845 13.3887 18.9517 13.214 18.9421 13.0236ZM21.3136 23.8099C21.8153 23.8239 22.0947 23.6591 22.3437 23.4092C23.5251 22.2227 24.7123 21.0422 25.8937 19.8556C26.4489 19.2979 26.4525 18.6604 25.903 18.1084C24.7219 16.9219 23.5373 15.7385 22.3513 14.5564C21.8291 14.0361 21.1469 14.0073 20.679 14.4774C20.2003 14.9587 20.2384 15.5932 20.7814 16.1379C21.6355 16.9939 22.4822 17.8579 23.3517 18.6979C23.5814 18.9196 23.5766 19.0351 23.3513 19.2537C22.4585 20.1199 21.5853 21.0063 20.7078 21.8883C20.3545 22.2435 20.2393 22.6633 20.4441 23.1318C20.6326 23.5631 20.9763 23.7932 21.3136 23.8099ZM11.6723 15.2563C11.6729 14.8281 11.3987 14.4047 10.9949 14.2425C10.5289 14.0556 10.0982 14.1324 9.74142 14.4867C8.50398 15.7155 7.26974 16.9471 6.04318 18.1865C5.59838 18.6361 5.59005 19.3059 6.03262 19.7545C7.26525 21.0044 8.51102 22.2409 9.7523 23.4822C9.94846 23.6783 10.1856 23.7916 10.4637 23.8115C10.9341 23.8454 11.3616 23.5919 11.5622 23.1619C11.7693 22.7183 11.6899 22.2719 11.3085 21.8863C10.4089 20.9775 9.50622 20.0716 8.59358 19.1759C8.4275 19.0131 8.43902 18.9286 8.59806 18.7724C9.49342 17.8924 10.3747 16.998 11.2665 16.1142C11.5091 15.8739 11.6579 15.5996 11.6723 15.2563Z" fill="black"/>
<path id="Vector_2" d="M16.0124 5.95013C10.815 5.95013 5.61787 5.94661 0.420434 5.95813C0.0850737 5.95877 -0.0195663 5.88101 0.00283372 5.54085C0.0585137 4.69765 -0.0771663 3.84581 0.151954 3.00901C0.620114 1.29925 2.15195 0.0698124 3.91931 0.00613242C4.02395 0.00229242 4.12859 0.00101242 4.23323 0.00101242C12.0816 0.000692419 19.9299 -0.000267581 27.7779 0.00165242C29.6998 0.00197242 31.2179 1.06277 31.8022 2.80389C31.9171 3.14661 31.998 3.49701 32.0003 3.86117C32.0041 4.47749 32.0012 5.09349 32.0105 5.70981C32.0131 5.88325 31.9686 5.97509 31.7779 5.95205C31.6976 5.94245 31.6153 5.95077 31.534 5.95077C26.3603 5.95013 21.1862 5.95013 16.0124 5.95013Z" fill="black"/>
</g>
</g>
<defs>
<clipPath id="clip0_1258_2669">
<rect width="32" height="32" fill="white"/>
</clipPath>
</defs>
</svg>
